<svg xmlns="http://www.w3.org/2000/svg" viewBox="0 0 512 512" width="512" height="512">
  <defs>
    <linearGradient id="bg" x1="0" y1="0" x2="1" y2="1">
      <stop offset="0" stop-color="#00d4a0"/>
      <stop offset="0.55" stop-color="#0ea5e9"/>
      <stop offset="1" stop-color="#7c3aed"/>
    </linearGradient>
    <linearGradient id="gold" x1="0" y1="0" x2="0" y2="1">
      <stop offset="0" stop-color="#ffe48a"/>
      <stop offset="1" stop-color="#f5a623"/>
    </linearGradient>
  </defs>
  <rect width="512" height="512" rx="112" fill="url(#bg)"/>
  <!-- Troféu -->
  <g transform="translate(256 250)">
    <path d="M-78 -118 h156 v44 a78 78 0 0 1 -156 0 z" fill="url(#gold)"/>
    <path d="M-78 -106 h-34 a34 34 0 0 0 34 56 z" fill="none" stroke="url(#gold)" stroke-width="18"/>
    <path d="M78 -106 h34 a34 34 0 0 1 -34 56 z" fill="none" stroke="url(#gold)" stroke-width="18"/>
    <rect x="-16" y="-30" width="32" height="56" fill="url(#gold)"/>
    <rect x="-58" y="26" width="116" height="26" rx="10" fill="url(#gold)"/>
    <rect x="-44" y="52" width="88" height="20" rx="8" fill="#e08e10"/>
  </g>
  <!-- Bola -->
  <g transform="translate(256 372)">
    <circle r="46" fill="#ffffff"/>
    <path d="M0 -46 l14 11 -6 18 -16 0 -6 -18 z" fill="#0b1020"/>
    <circle r="46" fill="none" stroke="#0b1020" stroke-width="4" opacity="0.25"/>
  </g>
  <text x="256" y="468" text-anchor="middle" font-family="Arial, sans-serif" font-size="52" font-weight="900" fill="#ffffff" opacity="0.95">BABES</text>
</svg>
